<svg width="70" height="70" viewBox="0 0 70 70" fill="none" xmlns="http://www.w3.org/2000/svg">
<circle cx="35" cy="35" r="35" fill="#E8F1F8"/>
<rect x="23.6147" y="13.1519" width="22.3853" height="43.6442" rx="1" fill="white" stroke="black" stroke-width="2"/>
<ellipse cx="34.8755" cy="31.8372" rx="4.49561" ry="4.42749" fill="#0B0C0C"/>
<path d="M44.8203 45.9399C44.8203 50.6799 39.6155 54.5225 34.8755 54.5225C30.1355 54.5225 24.9307 50.6799 24.9307 45.9399C24.9307 41.1999 30.1355 37.3574 34.8755 37.3574C39.6155 37.3574 44.8203 41.1999 44.8203 45.9399Z" fill="#0B0C0C"/>
<path d="M22.6147 14.1519C22.6147 13.0473 23.5102 12.1519 24.6147 12.1519H45C46.1046 12.1519 47 13.0473 47 14.1519V15.154C47 16.2585 46.1046 17.154 45 17.154H24.6147C23.5102 17.154 22.6147 16.2585 22.6147 15.154V14.1519Z" fill="#0B0C0C"/>
<path d="M22.6147 54.7939C22.6147 53.6894 23.5102 52.7939 24.6147 52.7939H45C46.1046 52.7939 47 53.6894 47 54.7939V55.796C47 56.9006 46.1046 57.796 45 57.796H24.6147C23.5102 57.796 22.6147 56.9006 22.6147 55.796V54.7939Z" fill="#0B0C0C"/>
<rect x="23.1147" y="12.6519" width="23.3853" height="44.6442" rx="1.5" stroke="black"/>
<path d="M24.46 43.5229H45.1528V54.6133H24.46V43.5229Z" fill="#F3F2F1"/>
<path d="M31.2269 24.2778H27.2466V28.1734" stroke="#1D70B8" stroke-width="2"/>
<path d="M27.2471 35.6386V39.5342H31.2274" stroke="#1D70B8" stroke-width="2"/>
<path d="M38.5241 24.2778H42.5044V28.1734" stroke="#1D70B8" stroke-width="2"/>
<path d="M42.5044 35.6386V39.5342H38.5241" stroke="#1D70B8" stroke-width="2"/>
<circle cx="34.8668" cy="46.5782" r="2.6192" fill="#005A30"/>
<path fill-rule="evenodd" clip-rule="evenodd" d="M36.5477 45.8098L34.329 48.0285L33.1514 46.8508L33.6263 46.3759L34.329 47.0787L36.0728 45.335L36.5477 45.8098Z" fill="white"/>
</svg>
