<svg width="246" height="51" viewBox="0 0 246 51" fill="none" xmlns="http://www.w3.org/2000/svg">
<rect width="245.647" height="51" fill="#003078"/>
<rect x="5.90042" y="20.5537" width="8.98238" height="17.086" fill="white"/>
<rect x="18.9341" y="20.5537" width="8.98238" height="17.086" fill="white"/>
<rect x="31.967" y="20.5537" width="8.98238" height="17.086" fill="white"/>
<rect x="46.9377" y="39.917" width="6.50897" height="46.497" transform="rotate(90 46.9377 39.917)" fill="white"/>
<rect x="46.5852" y="11.7666" width="6.50897" height="46.497" transform="rotate(90 46.5852 11.7666)" fill="white"/>
<line y1="-0.323834" x2="24.5195" y2="-0.323834" transform="matrix(0.94098 -0.338462 0.388309 0.921529 0.264313 11.9297)" stroke="white" stroke-width="0.647667"/>
<path d="M23.3369 1.51465L46.6738 11.8883L20.5 16.3955L0 11.8883L23.3369 1.51465Z" fill="white"/>
<path d="M60.5476 40.5039V7.12564H73.9119C76.3675 7.12564 78.4156 7.48963 80.0563 8.21761C81.6969 8.94558 82.9301 9.95606 83.7559 11.249C84.5817 12.5311 84.9946 14.0088 84.9946 15.6821C84.9946 16.9859 84.7338 18.1322 84.2123 19.121C83.6907 20.0988 82.9736 20.9029 82.0609 21.5331C81.1591 22.1524 80.1269 22.5924 78.9643 22.8532V23.1792C80.2355 23.2335 81.4253 23.592 82.5336 24.2548C83.6527 24.9176 84.5599 25.8466 85.2553 27.0418C85.9507 28.2261 86.2984 29.6386 86.2984 31.2792C86.2984 33.0503 85.8583 34.6312 84.9783 36.022C84.109 37.4019 82.8215 38.4938 81.1156 39.2979C79.4098 40.1019 77.3073 40.5039 74.8083 40.5039H60.5476ZM67.6046 34.7344H73.3578C75.3244 34.7344 76.7586 34.3596 77.6605 33.6099C78.5623 32.8493 79.0132 31.8388 79.0132 30.5784C79.0132 29.6549 78.7905 28.84 78.345 28.1337C77.8995 27.4275 77.2639 26.8734 76.4381 26.4713C75.6232 26.0693 74.6508 25.8683 73.5208 25.8683H67.6046V34.7344ZM67.6046 21.093H72.8363C73.8033 21.093 74.6616 20.9246 75.4113 20.5878C76.1719 20.2401 76.7695 19.7511 77.2041 19.121C77.6496 18.4908 77.8723 17.7356 77.8723 16.8555C77.8723 15.6495 77.4432 14.677 76.5848 13.9382C75.7373 13.1994 74.5313 12.8299 72.9666 12.8299H67.6046V21.093ZM97.8985 40.9765C96.3013 40.9765 94.8779 40.6995 93.6284 40.1454C92.3789 39.5804 91.3902 38.7492 90.6622 37.6518C89.9451 36.5435 89.5865 35.1636 89.5865 33.5121C89.5865 32.1213 89.8418 30.9533 90.3525 30.008C90.8632 29.0627 91.5586 28.3022 92.4387 27.7263C93.3187 27.1504 94.3184 26.7158 95.4375 26.4225C96.5675 26.1291 97.7518 25.9226 98.9904 25.8031C100.446 25.651 101.62 25.5098 102.511 25.3794C103.402 25.2381 104.048 25.0317 104.45 24.7601C104.852 24.4884 105.053 24.0864 105.053 23.554V23.4562C105.053 22.424 104.727 21.6254 104.075 21.0604C103.434 20.4954 102.522 20.2129 101.337 20.2129C100.088 20.2129 99.0937 20.49 98.3548 21.0441C97.616 21.5874 97.127 22.2719 96.888 23.0977L90.4666 22.5761C90.7926 21.055 91.4336 19.7403 92.3898 18.632C93.3459 17.5129 94.5791 16.6545 96.0894 16.0569C97.6106 15.4485 99.3707 15.1442 101.37 15.1442C102.761 15.1442 104.092 15.3072 105.363 15.6332C106.645 15.9591 107.78 16.4644 108.769 17.1489C109.769 17.8334 110.557 18.7135 111.132 19.7892C111.708 20.854 111.996 22.1306 111.996 23.6192V40.5039H105.412V37.0324H105.216C104.814 37.8147 104.276 38.5047 103.603 39.1023C102.929 39.689 102.12 40.1508 101.174 40.4876C100.229 40.8136 99.1371 40.9765 97.8985 40.9765ZM99.8868 36.1849C100.908 36.1849 101.81 35.9839 102.592 35.5819C103.375 35.169 103.988 34.6149 104.434 33.9195C104.879 33.2241 105.102 32.4364 105.102 31.5563V28.8997C104.885 29.041 104.586 29.1714 104.206 29.2909C103.836 29.3995 103.418 29.5028 102.951 29.6006C102.484 29.6875 102.016 29.769 101.549 29.845C101.082 29.9102 100.658 29.97 100.278 30.0243C99.4631 30.1438 98.7514 30.334 98.143 30.5947C97.5345 30.8555 97.0619 31.2086 96.725 31.6541C96.3882 32.0887 96.2198 32.632 96.2198 33.2839C96.2198 34.2292 96.562 34.9517 97.2466 35.4515C97.9419 35.9405 98.822 36.1849 99.8868 36.1849ZM124.326 26.0313V40.5039H117.383V15.4702H124V19.887H124.293C124.847 18.431 125.776 17.2793 127.08 16.4318C128.384 15.5734 129.965 15.1442 131.823 15.1442C133.561 15.1442 135.077 15.5245 136.37 16.2851C137.663 17.0457 138.668 18.1322 139.385 19.5447C140.102 20.9463 140.461 22.6196 140.461 24.5645V40.5039H133.518V25.8031C133.529 24.2711 133.137 23.0759 132.344 22.2176C131.551 21.3483 130.459 20.9137 129.068 20.9137C128.134 20.9137 127.308 21.1147 126.591 21.5168C125.885 21.9188 125.331 22.5055 124.929 23.2769C124.538 24.0375 124.337 24.9556 124.326 26.0313ZM152.224 33.3002L152.24 24.9719H153.25L161.269 15.4702H169.239L158.466 28.0522H156.82L152.224 33.3002ZM145.933 40.5039V7.12564H152.876V40.5039H145.933ZM161.579 40.5039L154.212 29.6006L158.841 24.6949L169.711 40.5039H161.579ZM204.015 7.12564H211.072V28.802C211.072 31.2358 210.49 33.3654 209.328 35.1908C208.176 37.0161 206.563 38.4395 204.487 39.4608C202.412 40.4713 199.994 40.9765 197.235 40.9765C194.464 40.9765 192.041 40.4713 189.966 39.4608C187.89 38.4395 186.277 37.0161 185.125 35.1908C183.974 33.3654 183.398 31.2358 183.398 28.802V7.12564H190.455V28.1989C190.455 29.4702 190.732 30.6002 191.286 31.5889C191.851 32.5777 192.644 33.3545 193.665 33.9195C194.687 34.4845 195.877 34.767 197.235 34.767C198.604 34.767 199.793 34.4845 200.804 33.9195C201.825 33.3545 202.613 32.5777 203.167 31.5889C203.732 30.6002 204.015 29.4702 204.015 28.1989V7.12564ZM216.878 40.5039V7.12564H223.935V21.8427H224.375L236.386 7.12564H244.845L232.459 22.0709L244.992 40.5039H236.549L227.406 26.781L223.935 31.0185V40.5039H216.878Z" fill="white"/>
</svg>
