<svg width="171" height="61" viewBox="0 0 171 61" fill="none" xmlns="http://www.w3.org/2000/svg">
<rect width="170.647" height="60.2099" fill="#003078"/>
<rect x="5.90039" y="25.1582" width="8.98238" height="17.086" fill="white"/>
<rect x="18.9341" y="25.1582" width="8.98238" height="17.086" fill="white"/>
<rect x="31.967" y="25.1582" width="8.98238" height="17.086" fill="white"/>
<rect x="46.9377" y="44.5215" width="6.50897" height="46.497" transform="rotate(90 46.9377 44.5215)" fill="white"/>
<rect x="46.5852" y="16.3711" width="6.50897" height="46.497" transform="rotate(90 46.5852 16.3711)" fill="white"/>
<line y1="-0.323834" x2="24.5195" y2="-0.323834" transform="matrix(0.94098 -0.338462 0.388309 0.921529 0.264404 16.5342)" stroke="white" stroke-width="0.647667"/>
<path d="M23.3369 6.11914L46.6738 16.4928L20.5 21L0 16.4928L23.3369 6.11914Z" fill="white"/>
<path d="M60.5475 45.1094V11.7311H73.9119C76.3674 11.7311 78.4155 12.0951 80.0562 12.8231C81.6969 13.5511 82.9301 14.5615 83.7558 15.8545C84.5816 17.1366 84.9945 18.6143 84.9945 20.2876C84.9945 21.5914 84.7337 22.7377 84.2122 23.7264C83.6907 24.7043 82.9735 25.5083 82.0609 26.1385C81.159 26.7578 80.1268 27.1979 78.9642 27.4587V27.7846C80.2355 27.8389 81.4252 28.1975 82.5335 28.8603C83.6526 29.5231 84.5599 30.4521 85.2553 31.6472C85.9506 32.8316 86.2983 34.2441 86.2983 35.8847C86.2983 37.6558 85.8583 39.2367 84.9782 40.6274C84.109 42.0073 82.8214 43.0993 81.1156 43.9033C79.4097 44.7074 77.3073 45.1094 74.8083 45.1094H60.5475ZM67.6046 39.3399H73.3577C75.3244 39.3399 76.7586 38.965 77.6604 38.2153C78.5622 37.4548 79.0131 36.4443 79.0131 35.1839C79.0131 34.2604 78.7904 33.4455 78.3449 32.7392C77.8994 32.033 77.2638 31.4788 76.4381 31.0768C75.6232 30.6748 74.6507 30.4738 73.5207 30.4738H67.6046V39.3399ZM67.6046 25.6985H72.8362C73.8032 25.6985 74.6616 25.5301 75.4113 25.1932C76.1719 24.8456 76.7694 24.3566 77.2041 23.7264C77.6495 23.0962 77.8723 22.3411 77.8723 21.461C77.8723 20.255 77.4431 19.2825 76.5847 18.5437C75.7372 17.8048 74.5312 17.4354 72.9666 17.4354H67.6046V25.6985ZM97.8984 45.582C96.3012 45.582 94.8779 45.305 93.6283 44.7508C92.3788 44.1858 91.3901 43.3546 90.6621 42.2572C89.945 41.149 89.5865 39.7691 89.5865 38.1175C89.5865 36.7268 89.8418 35.5588 90.3525 34.6135C90.8631 33.6682 91.5585 32.9076 92.4386 32.3318C93.3187 31.7559 94.3183 31.3213 95.4374 31.0279C96.5674 30.7346 97.7517 30.5281 98.9904 30.4086C100.446 30.2565 101.62 30.1152 102.511 29.9848C103.402 29.8436 104.048 29.6372 104.45 29.3655C104.852 29.0939 105.053 28.6919 105.053 28.1595V28.0617C105.053 27.0295 104.727 26.2309 104.075 25.6659C103.434 25.1009 102.522 24.8184 101.337 24.8184C100.088 24.8184 99.0936 25.0955 98.3548 25.6496C97.6159 26.1929 97.127 26.8774 96.8879 27.7031L90.4665 27.1816C90.7925 25.6605 91.4336 24.3457 92.3897 23.2375C93.3459 22.1184 94.5791 21.26 96.0893 20.6624C97.6105 20.0539 99.3707 19.7497 101.37 19.7497C102.761 19.7497 104.092 19.9127 105.363 20.2387C106.645 20.5646 107.78 21.0699 108.769 21.7544C109.769 22.4389 110.557 23.319 111.132 24.3946C111.708 25.4594 111.996 26.7361 111.996 28.2247V45.1094H105.412V41.6379H105.216C104.814 42.4202 104.276 43.1102 103.603 43.7077C102.929 44.2945 102.12 44.7563 101.174 45.0931C100.229 45.419 99.1371 45.582 97.8984 45.582ZM99.8868 40.7904C100.908 40.7904 101.81 40.5894 102.592 40.1874C103.375 39.7745 103.988 39.2204 104.434 38.525C104.879 37.8296 105.102 37.0419 105.102 36.1618V33.5052C104.885 33.6465 104.586 33.7768 104.206 33.8964C103.836 34.005 103.418 34.1082 102.951 34.206C102.484 34.2929 102.016 34.3744 101.549 34.4505C101.082 34.5157 100.658 34.5754 100.278 34.6298C99.463 34.7493 98.7513 34.9394 98.1429 35.2002C97.5344 35.461 97.0618 35.8141 96.725 36.2596C96.3881 36.6942 96.2197 37.2375 96.2197 37.8894C96.2197 38.8347 96.562 39.5572 97.2465 40.057C97.9419 40.5459 98.822 40.7904 99.8868 40.7904ZM124.326 30.6368V45.1094H117.383V20.0757H124V24.4924H124.293C124.847 23.0365 125.776 21.8848 127.08 21.0373C128.384 20.1789 129.965 19.7497 131.823 19.7497C133.561 19.7497 135.077 20.13 136.37 20.8906C137.663 21.6511 138.668 22.7377 139.385 24.1502C140.102 25.5518 140.461 27.2251 140.461 29.1699V45.1094H133.518V30.4086C133.529 28.8766 133.137 27.6814 132.344 26.823C131.551 25.9538 130.459 25.5192 129.068 25.5192C128.134 25.5192 127.308 25.7202 126.591 26.1222C125.885 26.5242 125.331 27.111 124.929 27.8824C124.537 28.643 124.336 29.5611 124.326 30.6368ZM152.224 37.9057L152.24 29.5774H153.25L161.269 20.0757H169.239L158.466 32.6577H156.82L152.224 37.9057ZM145.933 45.1094V11.7311H152.876V45.1094H145.933ZM161.579 45.1094L154.212 34.206L158.841 29.3003L169.711 45.1094H161.579Z" fill="white"/>
</svg>
