<svg width="17" height="18" viewBox="0 0 17 18" fill="none" xmlns="http://www.w3.org/2000/svg">
<path d="M14.8501 12.5864C14.8501 13.1924 14.377 13.6572 13.8208 13.6572C13.2646 13.6572 12.8164 13.1841 12.8164 12.603V9.47363L12.9492 6.38574L11.6211 7.87158L3.95117 15.5332C3.72705 15.7573 3.46973 15.8735 3.1958 15.8735C2.63965 15.8735 2.1416 15.3589 2.1416 14.8193C2.1416 14.5537 2.26611 14.2798 2.48193 14.064L10.1436 6.39404L11.6294 5.07422L8.41699 5.19043H5.40381C4.83105 5.19043 4.35791 4.74219 4.35791 4.19434C4.35791 3.63818 4.80615 3.17334 5.42041 3.17334H13.7544C14.4102 3.17334 14.8418 3.61328 14.8418 4.26074L14.8501 12.5864Z" fill="#008547"/>
</svg>
