<svg width="70" height="70" viewBox="0 0 70 70" fill="none" xmlns="http://www.w3.org/2000/svg">
<circle cx="35" cy="35" r="35" fill="#E8F1F8"/>
<rect x="31.9238" y="26.5737" width="27.4581" height="16.8526" rx="2.5" fill="#FCD6C3" stroke="black"/>
<path d="M33.5449 34.2051H44.6807V34.5586H33.5449V34.2051Z" fill="#0B0C0C"/>
<path d="M33.5449 35.6191H43.4434V35.9727H33.5449V35.6191Z" fill="#0B0C0C"/>
<path d="M31.4238 28.5479H59.8819V31.9063H31.4238V28.5479Z" fill="#0B0C0C"/>
<path d="M51.752 37.9165H57.0547V41.8052H51.752V37.9165Z" fill="#0B0C0C"/>
<path d="M37.1719 23.0034V46.9966H10.5V23.0034H37.1719Z" fill="white" stroke="black"/>
<path d="M13.582 26.7188H28.9396V27.6221H13.582V26.7188Z" fill="#0B0C0C"/>
<path d="M13.582 36.6562H28.9396V37.5596H13.582V36.6562Z" fill="#0B0C0C"/>
<path d="M32.3545 29.0264V33.1455H14.082V29.0264H32.3545Z" fill="white" stroke="black"/>
<rect x="15.3887" y="30.3325" width="1.50564" height="1.50564" fill="black"/>
<rect x="17.4961" y="30.3325" width="1.50564" height="1.50564" fill="black"/>
<rect x="19.6055" y="30.3325" width="1.50564" height="1.50564" fill="black"/>
<rect x="21.7129" y="30.3325" width="1.50564" height="1.50564" fill="black"/>
<rect x="23.8203" y="30.3325" width="1.50564" height="1.50564" fill="black"/>
<rect x="25.9277" y="30.3325" width="1.50564" height="1.50564" fill="black"/>
<path d="M32.3545 38.9619V43.0811H14.082V38.9619H32.3545Z" fill="white" stroke="black"/>
<rect x="15.3887" y="40.2681" width="1.50564" height="1.50564" fill="black"/>
<rect x="17.4961" y="40.2681" width="1.50564" height="1.50564" fill="black"/>
<rect x="19.6055" y="40.2681" width="1.50564" height="1.50564" fill="black"/>
<rect x="21.7129" y="40.2681" width="1.50564" height="1.50564" fill="black"/>
<rect x="23.8203" y="40.2681" width="1.50564" height="1.50564" fill="black"/>
<rect x="25.9277" y="40.2681" width="1.50564" height="1.50564" fill="black"/>
</svg>
