<svg width="170" height="159" viewBox="0 0 170 159" fill="none" xmlns="http://www.w3.org/2000/svg">
<rect width="170" height="159" rx="8" fill="#6C6C6C"/>
<path d="M72.5 65L81.5684 75.5002C81.785 75.7511 82.1779 75.7309 82.3607 75.4544C83.8669 73.177 89.7723 64.257 94 58M119 64C119 82.7777 103.778 98 85 98C66.2223 98 51 82.7777 51 64C51 45.2223 66.2223 30 85 30C103.778 30 119 45.2223 119 64Z" stroke="white" stroke-width="3" stroke-linecap="round"/>
<path d="M17.7037 134H19.8453V130.041H22.485C24.9171 130.041 26.5607 128.43 26.5607 126.04V126.023C26.5607 123.624 24.9171 122.022 22.485 122.022H17.7037V134ZM21.962 123.773C23.4977 123.773 24.3941 124.595 24.3941 126.031V126.048C24.3941 127.484 23.4977 128.314 21.962 128.314H19.8453V123.773H21.962ZM28.7239 134H30.7908V128.712C30.7908 127.351 31.5544 126.488 32.7829 126.488C34.0364 126.488 34.6091 127.202 34.6091 128.613V134H36.676V128.131C36.676 125.973 35.572 124.753 33.5466 124.753C32.2351 124.753 31.3635 125.342 30.9319 126.313H30.7908V121.416H28.7239V134ZM42.9647 134.183C45.6791 134.183 47.3309 132.406 47.3309 129.468V129.451C47.3309 126.529 45.6708 124.753 42.9647 124.753C40.267 124.753 38.5985 126.538 38.5985 129.451V129.468C38.5985 132.406 40.2421 134.183 42.9647 134.183ZM42.9647 132.506C41.5287 132.506 40.7069 131.385 40.7069 129.476V129.459C40.7069 127.55 41.5287 126.421 42.9647 126.421C44.3924 126.421 45.2142 127.55 45.2142 129.459V129.476C45.2142 131.385 44.4007 132.506 42.9647 132.506ZM52.9058 134.042C53.3042 134.042 53.686 134.008 53.9849 133.95V132.356C53.7358 132.381 53.5781 132.39 53.2876 132.39C52.4243 132.39 52.0674 132.008 52.0674 131.103V126.529H53.9849V124.927H52.0674V122.703H49.9673V124.927H48.5561V126.529H49.9673V131.593C49.9673 133.344 50.8223 134.042 52.9058 134.042ZM59.8087 134.183C62.5231 134.183 64.1749 132.406 64.1749 129.468V129.451C64.1749 126.529 62.5148 124.753 59.8087 124.753C57.111 124.753 55.4425 126.538 55.4425 129.451V129.468C55.4425 132.406 57.0861 134.183 59.8087 134.183ZM59.8087 132.506C58.3727 132.506 57.5509 131.385 57.5509 129.476V129.459C57.5509 127.55 58.3727 126.421 59.8087 126.421C61.2364 126.421 62.0582 127.55 62.0582 129.459V129.476C62.0582 131.385 61.2447 132.506 59.8087 132.506ZM74.0712 134.183C76.3041 134.183 77.9227 133.029 77.9227 131.302V131.286C77.9227 129.966 77.0843 129.21 75.308 128.812L73.8387 128.488C72.8592 128.264 72.4774 127.94 72.4774 127.409V127.401C72.4774 126.72 73.1415 126.272 74.0629 126.272C75.0341 126.272 75.6317 126.737 75.7811 127.31L75.7894 127.334H77.7318V127.318C77.599 125.849 76.2792 124.753 74.0712 124.753C71.9296 124.753 70.4354 125.882 70.4354 127.517V127.525C70.4354 128.862 71.2572 129.675 72.9838 130.057L74.453 130.389C75.4491 130.613 75.8475 130.962 75.8475 131.493V131.51C75.8475 132.19 75.1337 132.655 74.1044 132.655C73.0751 132.655 72.4691 132.215 72.2533 131.584L72.245 131.568H70.1947V131.584C70.369 133.12 71.7635 134.183 74.0712 134.183ZM82.9414 134.183C84.2529 134.183 85.1743 133.593 85.5977 132.622H85.7388V134H87.8057V124.927H85.7388V130.215C85.7388 131.576 85.0249 132.439 83.6885 132.439C82.4434 132.439 81.9204 131.726 81.9204 130.323V124.927H79.8535V130.796C79.8535 132.954 80.8994 134.183 82.9414 134.183ZM95.3063 134.149C97.5807 134.149 99.0333 132.348 99.0333 129.476V129.459C99.0333 126.571 97.6056 124.778 95.3063 124.778C94.0612 124.778 93.0236 125.392 92.5504 126.372H92.4093V121.416H90.3424V134H92.4093V132.581H92.5504C93.0485 133.568 94.0363 134.149 95.3063 134.149ZM94.6588 132.406C93.256 132.406 92.3844 131.294 92.3844 129.476V129.459C92.3844 127.642 93.256 126.521 94.6588 126.521C96.0699 126.521 96.9249 127.633 96.9249 129.459V129.476C96.9249 131.302 96.0699 132.406 94.6588 132.406ZM101.031 134H103.097V128.48C103.097 127.351 103.844 126.488 104.865 126.488C105.878 126.488 106.501 127.11 106.501 128.115V134H108.568V128.331C108.568 127.293 109.265 126.488 110.344 126.488C111.448 126.488 111.988 127.085 111.988 128.264V134H114.054V127.758C114.054 125.874 112.959 124.753 111.133 124.753C109.871 124.753 108.825 125.4 108.385 126.388H108.244C107.854 125.384 106.957 124.753 105.729 124.753C104.542 124.753 103.629 125.326 103.239 126.338H103.097V124.927H101.031V134ZM117.496 123.408C118.168 123.408 118.724 122.869 118.724 122.188C118.724 121.516 118.168 120.968 117.496 120.968C116.815 120.968 116.259 121.516 116.259 122.188C116.259 122.869 116.815 123.408 117.496 123.408ZM116.458 134H118.525V124.927H116.458V134ZM124.565 134.042C124.963 134.042 125.345 134.008 125.644 133.95V132.356C125.395 132.381 125.237 132.39 124.947 132.39C124.084 132.39 123.727 132.008 123.727 131.103V126.529H125.644V124.927H123.727V122.703H121.626V124.927H120.215V126.529H121.626V131.593C121.626 133.344 122.481 134.042 124.565 134.042ZM131.252 134.042C131.651 134.042 132.032 134.008 132.331 133.95V132.356C132.082 132.381 131.924 132.39 131.634 132.39C130.771 132.39 130.414 132.008 130.414 131.103V126.529H132.331V124.927H130.414V122.703H128.314V124.927H126.902V126.529H128.314V131.593C128.314 133.344 129.169 134.042 131.252 134.042ZM138.122 134.183C140.587 134.183 141.799 132.763 142.09 131.593L142.115 131.518H140.147L140.122 131.576C139.923 131.991 139.284 132.556 138.163 132.556C136.761 132.556 135.881 131.609 135.856 129.982H142.198V129.302C142.198 126.562 140.604 124.753 138.022 124.753C135.441 124.753 133.789 126.621 133.789 129.476V129.484C133.789 132.373 135.424 134.183 138.122 134.183ZM138.047 126.372C139.201 126.372 140.039 127.11 140.18 128.596H135.872C136.03 127.152 136.893 126.372 138.047 126.372ZM147.465 134.149C148.744 134.149 149.723 133.568 150.221 132.581H150.362V134H152.437V121.416H150.362V126.372H150.221C149.748 125.392 148.71 124.778 147.465 124.778C145.166 124.778 143.746 126.571 143.746 129.459V129.476C143.746 132.348 145.191 134.149 147.465 134.149ZM148.113 132.406C146.702 132.406 145.847 131.302 145.847 129.476V129.459C145.847 127.633 146.71 126.521 148.113 126.521C149.516 126.521 150.395 127.642 150.395 129.459V129.476C150.395 131.294 149.524 132.406 148.113 132.406Z" fill="white"/>
</svg>
