<svg width="375" height="47" viewBox="0 0 375 47" fill="none" xmlns="http://www.w3.org/2000/svg">
<path d="M39.8786 19.7231C42.4352 19.7231 44.6599 21.541 44.6599 25.8574V25.874C44.6599 29.9082 42.842 32.2988 39.8288 32.2988C37.6291 32.2988 35.9855 30.9956 35.6037 29.1611L35.5871 29.0698H37.6955L37.7204 29.1528C38.0358 29.9912 38.7746 30.5391 39.8288 30.5391C41.7297 30.5391 42.5349 28.6797 42.6262 26.3887C42.6262 26.2974 42.6345 26.2061 42.6345 26.1147H42.4684C42.0285 27.061 40.9826 27.8994 39.3391 27.8994C37.0397 27.8994 35.4294 26.2227 35.4294 23.9482V23.9316C35.4294 21.4995 37.2805 19.7231 39.8786 19.7231ZM39.8703 26.2559C41.2233 26.2559 42.2609 25.2764 42.2609 23.9233V23.9067C42.2609 22.5371 41.2233 21.4663 39.8952 21.4663C38.5754 21.4663 37.5212 22.5205 37.5212 23.8569V23.8735C37.5212 25.2598 38.509 26.2559 39.8703 26.2559ZM48.0204 24.2388C47.265 24.2388 46.7006 23.6577 46.7006 22.9272C46.7006 22.1885 47.265 21.6157 48.0204 21.6157C48.7841 21.6157 49.3402 22.1885 49.3402 22.9272C49.3402 23.6577 48.7841 24.2388 48.0204 24.2388ZM48.0204 30.3979C47.265 30.3979 46.7006 29.8252 46.7006 29.0864C46.7006 28.3477 47.265 27.7749 48.0204 27.7749C48.7841 27.7749 49.3402 28.3477 49.3402 29.0864C49.3402 29.8252 48.7841 30.3979 48.0204 30.3979ZM57.1915 32V29.7007H51.3312V27.9492C52.8834 25.2515 54.5851 22.4956 56.212 20.022H59.2418V27.9326H60.8522V29.7007H59.2418V32H57.1915ZM53.3233 27.9824H57.2247V21.7319H57.1002C55.8717 23.6079 54.4855 25.8242 53.3233 27.8579V27.9824ZM65.408 32V22.1304H65.2669L62.2869 24.2388V22.2217L65.4163 20.022H67.5496V32H65.408Z" fill="white"/>
<path opacity="0.35" d="M328 19.5275H345C346.918 19.5275 348.472 21.0822 348.472 23V28C348.472 29.9178 346.918 31.4725 345 31.4725H328C326.082 31.4725 324.528 29.9178 324.528 28V23C324.528 21.0822 326.082 19.5275 328 19.5275Z" stroke="white" stroke-width="1.05509"/>
<path opacity="0.4" d="M350 24V28.2203C350.849 27.8629 351.401 27.0314 351.401 26.1102C351.401 25.1889 350.849 24.3574 350 24" fill="white"/>
<path d="M326 23C326 21.8954 326.895 21 328 21H345C346.105 21 347 21.8954 347 23V28C347 29.1046 346.105 30 345 30H328C326.895 30 326 29.1046 326 28V23Z" fill="white"/>
<path fill-rule="evenodd" clip-rule="evenodd" d="M308.5 22.5875C310.967 22.5876 313.339 23.5551 315.127 25.2898C315.261 25.4237 315.477 25.4221 315.609 25.286L316.896 23.9605C316.963 23.8915 317.001 23.798 317 23.7008C316.999 23.6035 316.961 23.5105 316.893 23.4423C312.201 18.8526 304.799 18.8526 300.107 23.4423C300.039 23.5105 300.001 23.6034 300 23.7007C299.999 23.7979 300.037 23.8914 300.104 23.9605L301.391 25.286C301.523 25.4223 301.739 25.424 301.873 25.2898C303.661 23.5549 306.034 22.5875 308.5 22.5875ZM308.536 26.6724C309.891 26.6723 311.198 27.1864 312.203 28.115C312.338 28.2467 312.552 28.2439 312.685 28.1085L313.97 26.7829C314.038 26.7134 314.075 26.6191 314.074 26.5211C314.073 26.4231 314.034 26.3295 313.965 26.2614C310.906 23.3568 306.169 23.3568 303.109 26.2614C303.04 26.3295 303.001 26.4231 303 26.5212C302.999 26.6192 303.037 26.7135 303.105 26.7829L304.39 28.1085C304.522 28.2439 304.736 28.2467 304.872 28.115C305.876 27.1871 307.182 26.6729 308.536 26.6724ZM311.15 29.3427C311.152 29.441 311.114 29.5357 311.045 29.6046L308.822 31.8948C308.756 31.9621 308.668 32 308.575 32C308.482 32 308.393 31.9621 308.328 31.8948L306.105 29.6046C306.036 29.5357 305.998 29.4409 306 29.3426C306.002 29.2443 306.044 29.1512 306.115 29.0853C307.535 27.8595 309.615 27.8595 311.035 29.0853C311.106 29.1513 311.148 29.2444 311.15 29.3427Z" fill="white"/>
<path d="M284 23C284 22.4477 284.448 22 285 22H286C286.552 22 287 22.4477 287 23V31C287 31.5523 286.552 32 286 32H285C284.448 32 284 31.5523 284 31V23Z" fill="white"/>
<path d="M289 21C289 20.4477 289.448 20 290 20H291C291.552 20 292 20.4477 292 21V31C292 31.5523 291.552 32 291 32H290C289.448 32 289 31.5523 289 31V21Z" fill="white"/>
<path d="M279 26.5C279 25.9477 279.448 25.5 280 25.5H281C281.552 25.5 282 25.9477 282 26.5V31C282 31.5523 281.552 32 281 32H280C279.448 32 279 31.5523 279 31V26.5Z" fill="white"/>
<path d="M274 29C274 28.4477 274.448 28 275 28H276C276.552 28 277 28.4477 277 29V31C277 31.5523 276.552 32 276 32H275C274.448 32 274 31.5523 274 31V29Z" fill="white"/>
</svg>
