<svg width="375" height="47" viewBox="0 0 375 47" fill="none" xmlns="http://www.w3.org/2000/svg">
<path d="M40.3786 19.7231C42.9352 19.7231 45.1599 21.541 45.1599 25.8574V25.874C45.1599 29.9082 43.342 32.2988 40.3288 32.2988C38.1291 32.2988 36.4855 30.9956 36.1037 29.1611L36.0871 29.0698H38.1955L38.2204 29.1528C38.5358 29.9912 39.2746 30.5391 40.3288 30.5391C42.2297 30.5391 43.0349 28.6797 43.1262 26.3887C43.1262 26.2974 43.1345 26.2061 43.1345 26.1147H42.9684C42.5285 27.061 41.4826 27.8994 39.8391 27.8994C37.5397 27.8994 35.9294 26.2227 35.9294 23.9482V23.9316C35.9294 21.4995 37.7805 19.7231 40.3786 19.7231ZM40.3703 26.2559C41.7233 26.2559 42.7609 25.2764 42.7609 23.9233V23.9067C42.7609 22.5371 41.7233 21.4663 40.3952 21.4663C39.0754 21.4663 38.0212 22.5205 38.0212 23.8569V23.8735C38.0212 25.2598 39.009 26.2559 40.3703 26.2559ZM48.5204 24.2388C47.765 24.2388 47.2006 23.6577 47.2006 22.9272C47.2006 22.1885 47.765 21.6157 48.5204 21.6157C49.2841 21.6157 49.8402 22.1885 49.8402 22.9272C49.8402 23.6577 49.2841 24.2388 48.5204 24.2388ZM48.5204 30.3979C47.765 30.3979 47.2006 29.8252 47.2006 29.0864C47.2006 28.3477 47.765 27.7749 48.5204 27.7749C49.2841 27.7749 49.8402 28.3477 49.8402 29.0864C49.8402 29.8252 49.2841 30.3979 48.5204 30.3979ZM57.6915 32V29.7007H51.8312V27.9492C53.3834 25.2515 55.0851 22.4956 56.712 20.022H59.7418V27.9326H61.3522V29.7007H59.7418V32H57.6915ZM53.8233 27.9824H57.7247V21.7319H57.6002C56.3717 23.6079 54.9855 25.8242 53.8233 27.8579V27.9824ZM65.908 32V22.1304H65.7669L62.7869 24.2388V22.2217L65.9163 20.022H68.0496V32H65.908Z" fill="#010101"/>
<path opacity="0.35" d="M331.5 19.5275H348.5C350.418 19.5275 351.972 21.0822 351.972 23V28C351.972 29.9178 350.418 31.4725 348.5 31.4725H331.5C329.582 31.4725 328.028 29.9178 328.028 28V23C328.028 21.0822 329.582 19.5275 331.5 19.5275Z" stroke="black" stroke-width="1.05509"/>
<path opacity="0.4" d="M353.5 24V28.2203C354.349 27.8629 354.901 27.0314 354.901 26.1102C354.901 25.1889 354.349 24.3574 353.5 24" fill="black"/>
<path d="M329.5 23C329.5 21.8954 330.395 21 331.5 21H348.5C349.605 21 350.5 21.8954 350.5 23V28C350.5 29.1046 349.605 30 348.5 30H331.5C330.395 30 329.5 29.1046 329.5 28V23Z" fill="black"/>
<path fill-rule="evenodd" clip-rule="evenodd" d="M312 22.5875C314.467 22.5876 316.839 23.5551 318.627 25.2898C318.761 25.4237 318.977 25.4221 319.109 25.286L320.396 23.9605C320.463 23.8915 320.501 23.798 320.5 23.7008C320.499 23.6035 320.461 23.5105 320.393 23.4423C315.701 18.8526 308.299 18.8526 303.607 23.4423C303.539 23.5105 303.501 23.6034 303.5 23.7007C303.499 23.7979 303.537 23.8914 303.604 23.9605L304.891 25.286C305.023 25.4223 305.239 25.424 305.373 25.2898C307.161 23.5549 309.534 22.5875 312 22.5875ZM312.036 26.6724C313.391 26.6723 314.698 27.1864 315.703 28.115C315.838 28.2467 316.052 28.2439 316.185 28.1085L317.47 26.7829C317.538 26.7134 317.575 26.6191 317.574 26.5211C317.573 26.4231 317.534 26.3295 317.465 26.2614C314.406 23.3568 309.669 23.3568 306.609 26.2614C306.54 26.3295 306.501 26.4231 306.5 26.5212C306.499 26.6192 306.537 26.7135 306.605 26.7829L307.89 28.1085C308.022 28.2439 308.236 28.2467 308.372 28.115C309.376 27.1871 310.682 26.6729 312.036 26.6724ZM314.65 29.3427C314.652 29.441 314.614 29.5357 314.545 29.6046L312.322 31.8948C312.256 31.9621 312.168 32 312.075 32C311.982 32 311.893 31.9621 311.828 31.8948L309.605 29.6046C309.536 29.5357 309.498 29.4409 309.5 29.3426C309.502 29.2443 309.544 29.1512 309.615 29.0853C311.035 27.8595 313.115 27.8595 314.535 29.0853C314.606 29.1513 314.648 29.2444 314.65 29.3427Z" fill="black"/>
<path d="M287.5 23C287.5 22.4477 287.948 22 288.5 22H289.5C290.052 22 290.5 22.4477 290.5 23V31C290.5 31.5523 290.052 32 289.5 32H288.5C287.948 32 287.5 31.5523 287.5 31V23Z" fill="black"/>
<path d="M292.5 21C292.5 20.4477 292.948 20 293.5 20H294.5C295.052 20 295.5 20.4477 295.5 21V31C295.5 31.5523 295.052 32 294.5 32H293.5C292.948 32 292.5 31.5523 292.5 31V21Z" fill="black"/>
<path d="M282.5 26.5C282.5 25.9477 282.948 25.5 283.5 25.5H284.5C285.052 25.5 285.5 25.9477 285.5 26.5V31C285.5 31.5523 285.052 32 284.5 32H283.5C282.948 32 282.5 31.5523 282.5 31V26.5Z" fill="black"/>
<path d="M277.5 29C277.5 28.4477 277.948 28 278.5 28H279.5C280.052 28 280.5 28.4477 280.5 29V31C280.5 31.5523 280.052 32 279.5 32H278.5C277.948 32 277.5 31.5523 277.5 31V29Z" fill="black"/>
</svg>
