<svg width="163" height="159" viewBox="0 0 163 159" fill="none" xmlns="http://www.w3.org/2000/svg">
<rect x="0.5" width="162" height="159" rx="8" fill="#6C6C6C"/>
<path d="M69 65L78.0684 75.5002C78.285 75.7511 78.6779 75.7309 78.8607 75.4544C80.3669 73.177 86.2723 64.257 90.5 58M115.5 64C115.5 82.7777 100.278 98 81.5 98C62.7223 98 47.5 82.7777 47.5 64C47.5 45.2223 62.7223 30 81.5 30C100.278 30 115.5 45.2223 115.5 64Z" stroke="white" stroke-width="3" stroke-linecap="round"/>
<path d="M22.2289 134.299C25.101 134.299 26.9023 132.838 26.9023 130.505V130.497C26.9023 128.688 25.8481 127.675 23.3246 127.144L22.038 126.87C20.5439 126.554 19.9379 126.023 19.9379 125.176V125.168C19.9379 124.147 20.8842 123.524 22.2123 123.524C23.582 123.516 24.4701 124.18 24.6196 125.11L24.6362 125.209H26.6864L26.6781 125.102C26.5287 123.176 24.8769 121.723 22.2206 121.723C19.6308 121.723 17.788 123.167 17.788 125.309V125.317C17.788 127.102 18.8505 128.248 21.2992 128.762L22.5859 129.028C24.1298 129.36 24.7524 129.883 24.7524 130.746V130.754C24.7524 131.784 23.7397 132.498 22.2953 132.498C20.7763 132.498 19.7055 131.833 19.6059 130.829L19.5976 130.746H17.5224L17.5307 130.862C17.6801 132.929 19.4482 134.299 22.2289 134.299ZM32.917 134.183C35.2164 134.183 36.5528 132.946 36.8516 131.086L36.8682 131.02L34.9175 131.028L34.9009 131.062C34.6436 132.016 33.9878 132.506 32.917 132.506C31.5142 132.506 30.6758 131.377 30.6758 129.451V129.435C30.6758 127.534 31.5059 126.421 32.917 126.421C34.0459 126.421 34.7183 127.052 34.9092 127.932L34.9175 127.957H36.8682V127.924C36.6358 126.048 35.2413 124.753 32.9087 124.753C30.1778 124.753 28.5757 126.504 28.5757 129.435V129.451C28.5757 132.415 30.1861 134.183 32.917 134.183ZM41.2394 134.149C42.4347 134.149 43.3976 133.635 43.8957 132.755H44.0368V134H46.0788V127.799C46.0788 125.882 44.7673 124.753 42.4347 124.753C40.2765 124.753 38.8156 125.766 38.6164 127.293L38.6081 127.368H40.5588L40.5671 127.334C40.7746 126.737 41.3888 126.396 42.3351 126.396C43.4474 126.396 44.0368 126.895 44.0368 127.799V128.58L41.7043 128.721C39.4963 128.854 38.2594 129.8 38.2594 131.418V131.435C38.2594 133.087 39.5129 134.149 41.2394 134.149ZM40.3014 131.335V131.319C40.3014 130.572 40.841 130.148 41.9948 130.074L44.0368 129.941V130.671C44.0368 131.75 43.1154 132.564 41.8703 132.564C40.9572 132.564 40.3014 132.107 40.3014 131.335ZM48.491 134H50.5579V128.712C50.5579 127.351 51.3216 126.488 52.5501 126.488C53.8035 126.488 54.3763 127.202 54.3763 128.613V134H56.4432V128.131C56.4432 125.973 55.3392 124.753 53.3138 124.753C52.0022 124.753 51.1307 125.342 50.699 126.313H50.5579V124.927H48.491V134ZM66.7046 134.183C68.9376 134.183 70.5562 133.029 70.5562 131.302V131.286C70.5562 129.966 69.7178 129.21 67.9415 128.812L66.4722 128.488C65.4927 128.264 65.1109 127.94 65.1109 127.409V127.401C65.1109 126.72 65.775 126.272 66.6963 126.272C67.6675 126.272 68.2652 126.737 68.4146 127.31L68.4229 127.334H70.3653V127.318C70.2325 125.849 68.9127 124.753 66.7046 124.753C64.563 124.753 63.0689 125.882 63.0689 127.517V127.525C63.0689 128.862 63.8907 129.675 65.6172 130.057L67.0865 130.389C68.0826 130.613 68.481 130.962 68.481 131.493V131.51C68.481 132.19 67.7671 132.655 66.7379 132.655C65.7086 132.655 65.1026 132.215 64.8868 131.584L64.8785 131.568H62.8282V131.584C63.0025 133.12 64.397 134.183 66.7046 134.183ZM75.5749 134.183C76.8864 134.183 77.8078 133.593 78.2311 132.622H78.3722V134H80.4391V124.927H78.3722V130.215C78.3722 131.576 77.6584 132.439 76.322 132.439C75.0768 132.439 74.5539 131.726 74.5539 130.323V124.927H72.487V130.796C72.487 132.954 73.5329 134.183 75.5749 134.183ZM87.9398 134.149C90.2142 134.149 91.6668 132.348 91.6668 129.476V129.459C91.6668 126.571 90.2391 124.778 87.9398 124.778C86.6946 124.778 85.657 125.392 85.1839 126.372H85.0428V121.416H82.9759V134H85.0428V132.581H85.1839C85.6819 133.568 86.6697 134.149 87.9398 134.149ZM87.2923 132.406C85.8895 132.406 85.0179 131.294 85.0179 129.476V129.459C85.0179 127.642 85.8895 126.521 87.2923 126.521C88.7034 126.521 89.5584 127.633 89.5584 129.459V129.476C89.5584 131.302 88.7034 132.406 87.2923 132.406ZM93.664 134H95.7309V128.48C95.7309 127.351 96.478 126.488 97.499 126.488C98.5117 126.488 99.1342 127.11 99.1342 128.115V134H101.201V128.331C101.201 127.293 101.898 126.488 102.977 126.488C104.081 126.488 104.621 127.085 104.621 128.264V134H106.688V127.758C106.688 125.874 105.592 124.753 103.766 124.753C102.504 124.753 101.458 125.4 101.018 126.388H100.877C100.487 125.384 99.5908 124.753 98.3622 124.753C97.1752 124.753 96.2621 125.326 95.872 126.338H95.7309V124.927H93.664V134ZM110.129 123.408C110.802 123.408 111.358 122.869 111.358 122.188C111.358 121.516 110.802 120.968 110.129 120.968C109.449 120.968 108.893 121.516 108.893 122.188C108.893 122.869 109.449 123.408 110.129 123.408ZM109.092 134H111.159V124.927H109.092V134ZM117.198 134.042C117.597 134.042 117.979 134.008 118.278 133.95V132.356C118.029 132.381 117.871 132.39 117.58 132.39C116.717 132.39 116.36 132.008 116.36 131.103V126.529H118.278V124.927H116.36V122.703H114.26V124.927H112.849V126.529H114.26V131.593C114.26 133.344 115.115 134.042 117.198 134.042ZM123.886 134.042C124.284 134.042 124.666 134.008 124.965 133.95V132.356C124.716 132.381 124.558 132.39 124.267 132.39C123.404 132.39 123.047 132.008 123.047 131.103V126.529H124.965V124.927H123.047V122.703H120.947V124.927H119.536V126.529H120.947V131.593C120.947 133.344 121.802 134.042 123.886 134.042ZM130.755 134.183C133.221 134.183 134.433 132.763 134.723 131.593L134.748 131.518H132.781L132.756 131.576C132.557 131.991 131.917 132.556 130.797 132.556C129.394 132.556 128.514 131.609 128.489 129.982H134.831V129.302C134.831 126.562 133.237 124.753 130.656 124.753C128.074 124.753 126.422 126.621 126.422 129.476V129.484C126.422 132.373 128.058 134.183 130.755 134.183ZM130.681 126.372C131.834 126.372 132.673 127.11 132.814 128.596H128.506C128.664 127.152 129.527 126.372 130.681 126.372ZM140.099 134.149C141.377 134.149 142.357 133.568 142.855 132.581H142.996V134H145.071V121.416H142.996V126.372H142.855C142.381 125.392 141.344 124.778 140.099 124.778C137.799 124.778 136.38 126.571 136.38 129.459V129.476C136.38 132.348 137.824 134.149 140.099 134.149ZM140.746 132.406C139.335 132.406 138.48 131.302 138.48 129.476V129.459C138.48 127.633 139.343 126.521 140.746 126.521C142.149 126.521 143.029 127.642 143.029 129.459V129.476C143.029 131.294 142.157 132.406 140.746 132.406Z" fill="white"/>
</svg>
