<svg width="377" height="812" viewBox="0 0 377 812" fill="none" xmlns="http://www.w3.org/2000/svg">
<rect width="375" height="812" transform="translate(1.5)" fill="white"/>
<path d="M37.5052 16.748C35.2273 16.748 33.5501 18.2788 33.5501 20.4102V20.4248C33.5501 22.4097 34.9856 23.8745 37.0218 23.8745C38.45 23.8745 39.5047 23.1421 39.9222 22.1753H39.9661C39.9661 22.2925 39.9588 22.4023 39.9515 22.5122C39.8782 24.5117 39.1678 26.1377 37.4686 26.1377C36.5237 26.1377 35.8792 25.6689 35.5936 24.9438L35.5716 24.8779H33.6966L33.7112 24.9585C34.0408 26.5552 35.5057 27.6831 37.4612 27.6831C40.1565 27.6831 41.7752 25.5957 41.7752 22.1021V22.0874C41.7752 18.3813 39.8343 16.748 37.5052 16.748ZM37.5052 22.417C36.304 22.417 35.4104 21.5601 35.4104 20.3589V20.3442C35.4104 19.2017 36.3553 18.2935 37.5271 18.2935C38.7137 18.2935 39.6365 19.209 39.6365 20.3809V20.3882C39.6365 21.5674 38.7137 22.417 37.5052 22.417ZM44.0976 20.5859C44.6909 20.5859 45.1523 20.1172 45.1523 19.5239C45.1523 18.9307 44.6909 18.4692 44.0976 18.4692C43.5043 18.4692 43.0356 18.9307 43.0356 19.5239C43.0356 20.1172 43.5043 20.5859 44.0976 20.5859ZM44.0976 25.9619C44.6909 25.9619 45.1523 25.4932 45.1523 24.8999C45.1523 24.3066 44.6909 23.8452 44.0976 23.8452C43.5043 23.8452 43.0356 24.3066 43.0356 24.8999C43.0356 25.4932 43.5043 25.9619 44.0976 25.9619ZM51.6129 27.5H53.4146V25.4712H54.8502V23.9185H53.4146V16.9312H50.7266L46.3394 23.8599V25.4712H51.6129V27.5ZM48.0386 23.9624V23.9111L51.5982 18.3594H51.6422V23.9624H48.0386ZM58.6447 27.5H60.4978V16.9312H58.6301L55.8689 18.8721V20.6079L58.6008 18.7329H58.6447V27.5Z" fill="white"/>
<path d="M324.005 18.6175C326.23 18.6176 328.369 19.4717 329.982 21.0033C330.103 21.1215 330.297 21.12 330.417 20.9999L331.577 19.8296C331.638 19.7687 331.672 19.6862 331.671 19.6003C331.671 19.5145 331.636 19.4324 331.575 19.3722C327.343 15.32 320.666 15.32 316.435 19.3722C316.373 19.4323 316.338 19.5144 316.338 19.6003C316.337 19.6861 316.371 19.7687 316.432 19.8296L317.592 20.9999C317.712 21.1202 317.906 21.1217 318.028 21.0033C319.64 19.4716 321.78 18.6175 324.005 18.6175ZM324.005 22.4251C325.227 22.425 326.406 22.8789 327.312 23.6987C327.435 23.8151 327.628 23.8125 327.747 23.693L328.906 22.5227C328.967 22.4613 329.001 22.378 329.001 22.2915C329 22.205 328.964 22.1224 328.902 22.0623C326.143 19.4979 321.87 19.4979 319.111 22.0623C319.048 22.1224 319.013 22.205 319.012 22.2916C319.011 22.3781 319.045 22.4614 319.106 22.5227L320.265 23.693C320.385 23.8125 320.578 23.8151 320.7 23.6987C321.606 22.8795 322.783 22.4256 324.005 22.4251ZM326.233 25.2181C326.295 25.1573 326.329 25.0737 326.327 24.9869C326.325 24.9001 326.288 24.8179 326.223 24.7597C324.943 23.6774 323.067 23.6774 321.786 24.7597C321.722 24.8179 321.684 24.9001 321.683 24.9868C321.681 25.0736 321.715 25.1573 321.777 25.2181L323.782 27.2401C323.841 27.2996 323.921 27.333 324.005 27.333C324.089 27.333 324.169 27.2996 324.228 27.2401L326.233 25.2181Z" fill="white"/>
<path d="M295.338 22.9997H296.338C296.89 22.9997 297.338 23.4474 297.338 23.9997V25.9997C297.338 26.552 296.89 26.9997 296.338 26.9997H295.338C294.786 26.9997 294.338 26.552 294.338 25.9997V23.9997C294.338 23.4474 294.786 22.9997 295.338 22.9997ZM300.005 20.9997H301.005C301.557 20.9997 302.005 21.4474 302.005 21.9997V25.9997C302.005 26.552 301.557 26.9997 301.005 26.9997H300.005C299.452 26.9997 299.005 26.552 299.005 25.9997V21.9997C299.005 21.4474 299.452 20.9997 300.005 20.9997ZM304.671 18.6663H305.671C306.224 18.6663 306.671 19.1141 306.671 19.6663V25.9997C306.671 26.552 306.224 26.9997 305.671 26.9997H304.671C304.119 26.9997 303.671 26.552 303.671 25.9997V19.6663C303.671 19.1141 304.119 18.6663 304.671 18.6663ZM309.338 16.333H310.338C310.89 16.333 311.338 16.7807 311.338 17.333V25.9997C311.338 26.552 310.89 26.9997 310.338 26.9997H309.338C308.786 26.9997 308.338 26.552 308.338 25.9997V17.333C308.338 16.7807 308.786 16.333 309.338 16.333Z" fill="white"/>
<path opacity="0.35" fill-rule="evenodd" clip-rule="evenodd" d="M354.753 17.333C355.8 17.333 356.187 17.4244 356.572 17.6301C356.918 17.8152 357.19 18.0869 357.375 18.433C357.581 18.8177 357.672 19.2044 357.672 20.2515V24.7478C357.672 25.7949 357.581 26.1816 357.375 26.5663C357.19 26.9125 356.918 27.1841 356.572 27.3693C356.187 27.575 355.8 27.6663 354.753 27.6663H339.59C338.543 27.6663 338.157 27.575 337.772 27.3693C337.426 27.1841 337.154 26.9125 336.969 26.5663C336.763 26.1816 336.672 25.7949 336.672 24.7478V20.2515C336.672 19.2044 336.763 18.8177 336.969 18.433C337.154 18.0869 337.426 17.8152 337.772 17.6301C338.157 17.4244 338.543 17.333 339.59 17.333H354.753Z" stroke="white"/>
<path opacity="0.4" d="M359.172 20.5V24.5C359.977 24.1612 360.5 23.3731 360.5 22.5C360.5 21.6269 359.977 20.8388 359.172 20.5Z" fill="white"/>
<path d="M339.881 18.833H354.463C355.057 18.833 355.272 18.8949 355.49 19.0111C355.707 19.1273 355.878 19.2978 355.994 19.5151C356.11 19.7324 356.172 19.9479 356.172 20.5423V24.4571C356.172 25.0514 356.11 25.267 355.994 25.4842C355.878 25.7015 355.707 25.872 355.49 25.9883C355.272 26.1045 355.057 26.1663 354.463 26.1663H339.881C339.287 26.1663 339.071 26.1045 338.854 25.9883C338.637 25.872 338.466 25.7015 338.35 25.4842C338.234 25.267 338.172 25.0514 338.172 24.4571V20.5423C338.172 19.9479 338.234 19.7324 338.35 19.5151C338.466 19.2978 338.637 19.1273 338.854 19.0111C339.071 18.8949 339.287 18.833 339.881 18.833Z" fill="white"/>
<g filter="url(#filter0_bi_74032_123235)">
<path d="M36.3186 16.1675C34.0262 16.1675 32.3929 17.7349 32.3929 19.8809V19.8955C32.3929 21.9023 33.8138 23.3818 35.8426 23.3818C37.2928 23.3818 38.2156 22.6421 38.6038 21.8071H38.7503C38.7503 21.8877 38.743 21.9683 38.743 22.0488C38.6624 24.0703 37.952 25.7109 36.2747 25.7109C35.3445 25.7109 34.6927 25.2275 34.4144 24.4878L34.3924 24.4146H32.532L32.5467 24.4951C32.8836 26.1138 34.3338 27.2637 36.2747 27.2637C38.9334 27.2637 40.5374 25.1543 40.5374 21.5947V21.5801C40.5374 17.7715 38.5745 16.1675 36.3186 16.1675ZM36.3113 21.9316C35.1102 21.9316 34.2386 21.0527 34.2386 19.8296V19.8149C34.2386 18.6357 35.1687 17.7056 36.3333 17.7056C37.5052 17.7056 38.4207 18.6504 38.4207 19.8589V19.8735C38.4207 21.0674 37.5052 21.9316 36.3113 21.9316ZM43.8266 20.1519C44.5004 20.1519 44.9911 19.6392 44.9911 18.9946C44.9911 18.3428 44.5004 17.8374 43.8266 17.8374C43.1601 17.8374 42.662 18.3428 42.662 18.9946C42.662 19.6392 43.1601 20.1519 43.8266 20.1519ZM43.8266 25.5864C44.5004 25.5864 44.9911 25.0811 44.9911 24.4292C44.9911 23.7773 44.5004 23.272 43.8266 23.272C43.1601 23.272 42.662 23.7773 42.662 24.4292C42.662 25.0811 43.1601 25.5864 43.8266 25.5864ZM52.2427 27H54.0518V24.9712H55.4727V23.4111H54.0518V16.4312H51.3785C49.9429 18.6138 48.4415 21.0454 47.0718 23.4258V24.9712H52.2427V27ZM48.8297 23.4551V23.3452C49.855 21.5508 51.0782 19.5952 52.1622 17.9399H52.272V23.4551H48.8297ZM59.8166 27H61.7063V16.4312H59.8239L57.0627 18.3721V20.1519L59.6921 18.2915H59.8166V27Z" fill="black"/>
<path d="M324.094 18.4189C326.313 18.419 328.447 19.3233 330.056 20.945C330.177 21.0702 330.371 21.0686 330.49 20.9415L331.648 19.7023C331.708 19.6378 331.742 19.5504 331.741 19.4595C331.741 19.3686 331.706 19.2817 331.645 19.2179C327.423 14.9274 320.763 14.9274 316.542 19.2179C316.481 19.2816 316.446 19.3686 316.445 19.4595C316.445 19.5504 316.478 19.6377 316.539 19.7023L317.697 20.9415C317.816 21.0688 318.01 21.0704 318.131 20.945C319.739 19.3232 321.874 18.4189 324.094 18.4189ZM324.094 22.4504C325.313 22.4503 326.489 22.931 327.393 23.799C327.515 23.9222 327.708 23.9195 327.827 23.793L328.983 22.5538C329.044 22.4888 329.078 22.4006 329.077 22.309C329.076 22.2174 329.041 22.1299 328.979 22.0663C326.226 19.351 321.964 19.351 319.211 22.0663C319.149 22.1299 319.114 22.2174 319.113 22.3091C319.112 22.4007 319.146 22.4889 319.207 22.5538L320.363 23.793C320.482 23.9195 320.675 23.9222 320.797 23.799C321.7 22.9316 322.875 22.451 324.094 22.4504ZM326.316 25.4078C326.378 25.3434 326.412 25.2548 326.41 25.163C326.408 25.0711 326.371 24.984 326.307 24.9224C325.029 23.7765 323.158 23.7765 321.881 24.9224C321.816 24.984 321.779 25.071 321.777 25.1629C321.775 25.2548 321.809 25.3434 321.871 25.4078L323.872 27.5487C323.93 27.6116 324.01 27.6471 324.094 27.6471C324.177 27.6471 324.257 27.6116 324.316 27.5487L326.316 25.4078Z" fill="black"/>
<path d="M295.498 23.0588H296.495C297.046 23.0588 297.493 23.5329 297.493 24.1176V26.2353C297.493 26.8201 297.046 27.2941 296.495 27.2941H295.498C294.947 27.2941 294.5 26.8201 294.5 26.2353V24.1176C294.5 23.5329 294.947 23.0588 295.498 23.0588ZM300.153 20.9412H301.15C301.701 20.9412 302.148 21.4152 302.148 22V26.2353C302.148 26.8201 301.701 27.2941 301.15 27.2941H300.153C299.602 27.2941 299.155 26.8201 299.155 26.2353V22C299.155 21.4152 299.602 20.9412 300.153 20.9412ZM304.808 18.4706H305.806C306.357 18.4706 306.803 18.9446 306.803 19.5294V26.2353C306.803 26.8201 306.357 27.2941 305.806 27.2941H304.808C304.257 27.2941 303.811 26.8201 303.811 26.2353V19.5294C303.811 18.9446 304.257 18.4706 304.808 18.4706ZM309.463 16H310.461C311.012 16 311.458 16.4741 311.458 17.0588V26.2353C311.458 26.8201 311.012 27.2941 310.461 27.2941H309.463C308.912 27.2941 308.466 26.8201 308.466 26.2353V17.0588C308.466 16.4741 308.912 16 309.463 16Z" fill="black"/>
<path opacity="0.4" fill-rule="evenodd" clip-rule="evenodd" d="M354.768 17.0586C355.812 17.0586 356.198 17.1553 356.582 17.3732C356.927 17.5692 357.198 17.8568 357.383 18.2233C357.588 18.6306 357.679 19.0401 357.679 20.1488V24.9096C357.679 26.0183 357.588 26.4277 357.383 26.8351C357.198 27.2016 356.927 27.4892 356.582 27.6852C356.198 27.903 355.812 27.9998 354.768 27.9998H339.642C338.597 27.9998 338.212 27.903 337.828 27.6852C337.482 27.4892 337.211 27.2016 337.027 26.8351C336.822 26.4277 336.73 26.0183 336.73 24.9096V20.1488C336.73 19.0401 336.822 18.6306 337.027 18.2233C337.211 17.8568 337.482 17.5692 337.828 17.3732C338.212 17.1553 338.597 17.0586 339.642 17.0586H354.768Z" stroke="black"/>
<path opacity="0.4" d="M359.176 20.4111V24.6464C359.979 24.2877 360.501 23.4533 360.501 22.5288C360.501 21.6043 359.979 20.7698 359.176 20.4111Z" fill="black"/>
<path d="M339.932 18.6465H354.478C355.07 18.6465 355.285 18.712 355.502 18.835C355.719 18.9581 355.889 19.1386 356.005 19.3687C356.121 19.5988 356.183 19.827 356.183 20.4563V24.6014C356.183 25.2307 356.121 25.4589 356.005 25.689C355.889 25.919 355.719 26.0996 355.502 26.2226C355.285 26.3457 355.07 26.4112 354.478 26.4112H339.932C339.339 26.4112 339.124 26.3457 338.907 26.2226C338.69 26.0996 338.52 25.919 338.404 25.689C338.288 25.4589 338.227 25.2307 338.227 24.6014V20.4563C338.227 19.827 338.288 19.5988 338.404 19.3687C338.52 19.1386 338.69 18.9581 338.907 18.835C339.124 18.712 339.339 18.6465 339.932 18.6465Z" fill="black"/>
</g>
<rect x="108.5" y="327" width="162" height="159" rx="8" fill="#6C6C6C"/>
<path d="M177 392L186.068 402.5C186.285 402.751 186.678 402.731 186.861 402.454C188.367 400.177 194.272 391.257 198.5 385M223.5 391C223.5 409.778 208.278 425 189.5 425C170.722 425 155.5 409.778 155.5 391C155.5 372.222 170.722 357 189.5 357C208.278 357 223.5 372.222 223.5 391Z" stroke="white" stroke-width="3" stroke-linecap="round"/>
<path d="M130.229 461.299C133.101 461.299 134.902 459.838 134.902 457.505V457.497C134.902 455.688 133.848 454.675 131.325 454.144L130.038 453.87C128.544 453.554 127.938 453.023 127.938 452.176V452.168C127.938 451.147 128.884 450.524 130.212 450.524C131.582 450.516 132.47 451.18 132.62 452.11L132.636 452.209H134.686L134.678 452.102C134.529 450.176 132.877 448.723 130.221 448.723C127.631 448.723 125.788 450.167 125.788 452.309V452.317C125.788 454.102 126.851 455.248 129.299 455.762L130.586 456.028C132.13 456.36 132.752 456.883 132.752 457.746V457.754C132.752 458.784 131.74 459.498 130.295 459.498C128.776 459.498 127.705 458.833 127.606 457.829L127.598 457.746H125.522L125.531 457.862C125.68 459.929 127.448 461.299 130.229 461.299ZM140.917 461.183C143.216 461.183 144.553 459.946 144.852 458.086L144.868 458.02L142.918 458.028L142.901 458.062C142.644 459.016 141.988 459.506 140.917 459.506C139.514 459.506 138.676 458.377 138.676 456.451V456.435C138.676 454.534 139.506 453.421 140.917 453.421C142.046 453.421 142.718 454.052 142.909 454.932L142.918 454.957H144.868V454.924C144.636 453.048 143.241 451.753 140.909 451.753C138.178 451.753 136.576 453.504 136.576 456.435V456.451C136.576 459.415 138.186 461.183 140.917 461.183ZM149.239 461.149C150.435 461.149 151.398 460.635 151.896 459.755H152.037V461H154.079V454.799C154.079 452.882 152.767 451.753 150.435 451.753C148.277 451.753 146.816 452.766 146.616 454.293L146.608 454.368H148.559L148.567 454.334C148.775 453.737 149.389 453.396 150.335 453.396C151.447 453.396 152.037 453.895 152.037 454.799V455.58L149.704 455.721C147.496 455.854 146.259 456.8 146.259 458.418V458.435C146.259 460.087 147.513 461.149 149.239 461.149ZM148.301 458.335V458.319C148.301 457.572 148.841 457.148 149.995 457.074L152.037 456.941V457.671C152.037 458.75 151.115 459.564 149.87 459.564C148.957 459.564 148.301 459.107 148.301 458.335ZM156.491 461H158.558V455.712C158.558 454.351 159.322 453.488 160.55 453.488C161.804 453.488 162.376 454.202 162.376 455.613V461H164.443V455.131C164.443 452.973 163.339 451.753 161.314 451.753C160.002 451.753 159.131 452.342 158.699 453.313H158.558V451.927H156.491V461ZM174.705 461.183C176.938 461.183 178.556 460.029 178.556 458.302V458.286C178.556 456.966 177.718 456.21 175.941 455.812L174.472 455.488C173.493 455.264 173.111 454.94 173.111 454.409V454.401C173.111 453.72 173.775 453.272 174.696 453.272C175.668 453.272 176.265 453.737 176.415 454.31L176.423 454.334H178.365V454.318C178.232 452.849 176.913 451.753 174.705 451.753C172.563 451.753 171.069 452.882 171.069 454.517V454.525C171.069 455.862 171.891 456.675 173.617 457.057L175.086 457.389C176.083 457.613 176.481 457.962 176.481 458.493V458.51C176.481 459.19 175.767 459.655 174.738 459.655C173.709 459.655 173.103 459.215 172.887 458.584L172.878 458.568H170.828V458.584C171.002 460.12 172.397 461.183 174.705 461.183ZM183.575 461.183C184.886 461.183 185.808 460.593 186.231 459.622H186.372V461H188.439V451.927H186.372V457.215C186.372 458.576 185.658 459.439 184.322 459.439C183.077 459.439 182.554 458.726 182.554 457.323V451.927H180.487V457.796C180.487 459.954 181.533 461.183 183.575 461.183ZM195.94 461.149C198.214 461.149 199.667 459.348 199.667 456.476V456.459C199.667 453.571 198.239 451.778 195.94 451.778C194.695 451.778 193.657 452.392 193.184 453.372H193.043V448.416H190.976V461H193.043V459.581H193.184C193.682 460.568 194.67 461.149 195.94 461.149ZM195.292 459.406C193.889 459.406 193.018 458.294 193.018 456.476V456.459C193.018 454.642 193.889 453.521 195.292 453.521C196.703 453.521 197.558 454.633 197.558 456.459V456.476C197.558 458.302 196.703 459.406 195.292 459.406ZM201.664 461H203.731V455.48C203.731 454.351 204.478 453.488 205.499 453.488C206.512 453.488 207.134 454.11 207.134 455.115V461H209.201V455.331C209.201 454.293 209.898 453.488 210.977 453.488C212.081 453.488 212.621 454.085 212.621 455.264V461H214.688V454.758C214.688 452.874 213.592 451.753 211.766 451.753C210.504 451.753 209.458 452.4 209.018 453.388H208.877C208.487 452.384 207.591 451.753 206.362 451.753C205.175 451.753 204.262 452.326 203.872 453.338H203.731V451.927H201.664V461ZM218.129 450.408C218.802 450.408 219.358 449.869 219.358 449.188C219.358 448.516 218.802 447.968 218.129 447.968C217.449 447.968 216.893 448.516 216.893 449.188C216.893 449.869 217.449 450.408 218.129 450.408ZM217.092 461H219.159V451.927H217.092V461ZM225.198 461.042C225.597 461.042 225.979 461.008 226.278 460.95V459.356C226.029 459.381 225.871 459.39 225.58 459.39C224.717 459.39 224.36 459.008 224.36 458.103V453.529H226.278V451.927H224.36V449.703H222.26V451.927H220.849V453.529H222.26V458.593C222.26 460.344 223.115 461.042 225.198 461.042ZM231.886 461.042C232.284 461.042 232.666 461.008 232.965 460.95V459.356C232.716 459.381 232.558 459.39 232.267 459.39C231.404 459.39 231.047 459.008 231.047 458.103V453.529H232.965V451.927H231.047V449.703H228.947V451.927H227.536V453.529H228.947V458.593C228.947 460.344 229.802 461.042 231.886 461.042ZM238.755 461.183C241.221 461.183 242.433 459.763 242.723 458.593L242.748 458.518H240.781L240.756 458.576C240.557 458.991 239.917 459.556 238.797 459.556C237.394 459.556 236.514 458.609 236.489 456.982H242.831V456.302C242.831 453.562 241.237 451.753 238.656 451.753C236.074 451.753 234.422 453.621 234.422 456.476V456.484C234.422 459.373 236.058 461.183 238.755 461.183ZM238.681 453.372C239.834 453.372 240.673 454.11 240.814 455.596H236.506C236.664 454.152 237.527 453.372 238.681 453.372ZM248.099 461.149C249.377 461.149 250.357 460.568 250.855 459.581H250.996V461H253.071V448.416H250.996V453.372H250.855C250.381 452.392 249.344 451.778 248.099 451.778C245.799 451.778 244.38 453.571 244.38 456.459V456.476C244.38 459.348 245.824 461.149 248.099 461.149ZM248.746 459.406C247.335 459.406 246.48 458.302 246.48 456.476V456.459C246.48 454.633 247.343 453.521 248.746 453.521C250.149 453.521 251.029 454.642 251.029 456.459V456.476C251.029 458.294 250.157 459.406 248.746 459.406Z" fill="white"/>
<defs>
<filter id="filter0_bi_74032_123235" x="-14.5" y="-15" width="405" height="74" filterUnits="userSpaceOnUse" color-interpolation-filters="sRGB">
<feFlood flood-opacity="0" result="BackgroundImageFix"/>
<feGaussianBlur in="BackgroundImageFix" stdDeviation="7.5"/>
<feComposite in2="SourceAlpha" operator="in" result="effect1_backgroundBlur_74032_123235"/>
<feBlend mode="normal" in="SourceGraphic" in2="effect1_backgroundBlur_74032_123235" result="shape"/>
<feColorMatrix in="SourceAlpha" type="matrix" values="0 0 0 0 0 0 0 0 0 0 0 0 0 0 0 0 0 0 127 0" result="hardAlpha"/>
<feOffset dy="-0.5"/>
<feComposite in2="hardAlpha" operator="arithmetic" k2="-1" k3="1"/>
<feColorMatrix type="matrix" values="0 0 0 0 0 0 0 0 0 0 0 0 0 0 0 0 0 0 0.3 0"/>
<feBlend mode="normal" in2="shape" result="effect2_innerShadow_74032_123235"/>
</filter>
</defs>
</svg>
